<svg width="138" height="36" viewBox="0 0 138 36" fill="none" xmlns="http://www.w3.org/2000/svg">
<path d="M10.8232 35.1132C8.6619 35.1132 6.76659 34.6291 5.13729 33.6609C3.50798 32.6928 2.24445 31.4074 1.34667 29.8049C0.448889 28.2025 0 26.433 0 24.4967V0.0587635H8.37926V25.0976C8.37926 25.8989 8.66189 26.6 9.22716 27.2009C9.79243 27.8018 10.4907 28.1023 11.322 28.1023H20.5491V35.1132H10.8232Z" fill="white"/>
<path d="M125.308 0.88682C127.308 0.88682 129.077 1.21752 130.616 1.87893C132.185 2.50884 133.508 3.4222 134.585 4.61903C135.692 5.78436 136.539 7.17016 137.123 8.77643C137.708 10.3512 138 12.0992 138 14.0204C138 16.4141 137.508 18.54 136.523 20.3982C135.569 22.225 134.246 23.658 132.554 24.6974C130.862 25.7367 128.892 26.2564 126.646 26.2564C125.693 26.2564 124.785 26.1304 123.923 25.8784C123.093 25.6265 122.323 25.2643 121.616 24.7919C120.939 24.3194 120.37 23.7368 119.908 23.0439H119.77V35.9412H112.616V14.0204C112.616 11.3433 113.139 9.02839 114.185 7.07567C115.231 5.12296 116.708 3.61118 118.616 2.54033C120.523 1.43799 122.754 0.88682 125.308 0.88682ZM125.308 7.2174C124.2 7.2174 123.231 7.50086 122.4 8.06778C121.6 8.6032 120.985 9.35909 120.554 10.3355C120.123 11.2803 119.908 12.3512 119.908 13.548C119.908 14.7448 120.123 15.8157 120.554 16.7605C120.985 17.7054 121.6 18.4613 122.4 19.0282C123.231 19.5636 124.2 19.8313 125.308 19.8313C126.416 19.8313 127.369 19.5636 128.169 19.0282C128.969 18.4613 129.585 17.7054 130.016 16.7605C130.477 15.8157 130.708 14.7448 130.708 13.548C130.708 12.3512 130.477 11.2803 130.016 10.3355C129.585 9.35909 128.969 8.6032 128.169 8.06778C127.369 7.50086 126.416 7.2174 125.308 7.2174Z" fill="white"/>
<path d="M88.0562 35.1132C78.0866 35.1132 71.6362 28.7092 65.3821 22.532L60.4027 17.586C54.6824 11.9704 50.6509 8.57938 44.9089 8.57938C42.1849 8.57938 39.6898 9.52972 37.8811 11.2684C36.1486 12.9315 35.1898 15.1777 35.1898 17.586C35.1898 19.9942 36.1486 22.2405 37.8811 23.9035C39.6898 25.6314 42.1849 26.5926 44.9089 26.5926C47.3931 26.5926 49.6158 25.977 51.9475 24.6271L55.1291 23.9035H55.6154C53.3382 23.9035 54.2611 27.9395 54.2611 25.6933L56.0656 23.3087V25.2859C57.5801 25.2859 56.8022 22.8344 57.87 23.9035L62.1787 22.7048C62.8651 23.3852 63.2356 24.3247 63.2029 25.2859C63.1702 26.247 62.7344 27.1541 62.0044 27.7913C54.5734 34.2384 49.1909 35.1132 44.9089 35.1132C34.645 35.1132 26.593 27.4133 26.593 17.586C26.593 7.75864 34.645 0.0587635 44.9089 0.0587635C54.8785 0.0587635 61.3288 6.45193 67.583 12.6399L72.6822 17.694C78.3372 23.2448 82.3577 26.5926 88.0562 26.5926C90.7802 26.5926 93.2753 25.6314 95.084 23.9035C96.8164 22.2405 97.7753 19.9942 97.7753 17.586C97.7753 15.1777 96.8164 12.9315 95.084 11.2684C93.2753 9.52972 90.7802 8.57938 88.0562 8.57938C84.2863 8.57938 81.0938 9.98329 77.0515 13.4175C76.3105 14.0438 75.3735 14.3786 74.4038 14.3786C73.3251 14.3786 72.3009 13.9682 71.5382 13.2123L68.1932 9.8861L69.3699 8.80617C75.0575 3.54693 80.4183 0.0587635 88.0562 0.0587635C98.32 0.0587635 106.372 7.75864 106.372 17.586C106.372 27.4133 98.32 35.1132 88.0562 35.1132Z" fill="url(#paint0_linear_18_2)"/>
<path d="M88.0562 35.1132C78.0866 35.1132 71.6362 28.7092 65.3821 22.532L60.4027 17.586C54.6824 11.9704 50.6509 8.57938 44.9089 8.57938C42.1849 8.57938 39.6898 9.52972 37.8811 11.2684C36.1486 12.9315 35.1898 15.1777 35.1898 17.586C35.1898 19.9942 36.1486 22.2405 37.8811 23.9035C39.6898 25.6314 42.1849 26.5926 44.9089 26.5926C47.3931 26.5926 49.6158 25.977 51.9475 24.6271L53.6596 24.501L57.87 22.532C55.5928 22.532 53.6596 26.7472 53.6596 24.501C55.7306 23.3023 55.1291 23.3133 55.1291 23.3133L53.6596 24.501L59.073 21.5202L62.1787 22.7048C62.8651 23.3852 63.2356 24.3247 63.2029 25.2859C63.1702 26.247 62.7344 27.1541 62.0044 27.7913C54.5734 34.2384 49.1909 35.1132 44.9089 35.1132C34.645 35.1132 26.593 27.4133 26.593 17.586C26.593 7.75864 34.645 0.0587635 44.9089 0.0587635C54.8785 0.0587635 61.3288 6.45193 67.583 12.6399L72.6822 17.694C78.3372 23.2448 82.3577 26.5926 88.0562 26.5926C90.7802 26.5926 93.2753 25.6314 95.084 23.9035C96.8164 22.2405 97.7753 19.9942 97.7753 17.586C97.7753 15.1777 96.8164 12.9315 95.084 11.2684C93.2753 9.52972 90.7802 8.57938 88.0562 8.57938C84.2863 8.57938 81.0938 9.98329 77.0515 13.4175C76.3105 14.0438 75.3735 14.3786 74.4038 14.3786C73.3251 14.3786 72.3009 13.9682 71.5382 13.2123L68.1932 9.8861L69.3699 8.80617C75.0575 3.54693 80.4183 0.0587635 88.0562 0.0587635C98.32 0.0587635 106.372 7.75864 106.372 17.586C106.372 27.4133 98.32 35.1132 88.0562 35.1132Z" fill="url(#paint1_linear_18_2)"/>
<path d="M74.4037 14.3787C75.3735 14.3787 76.3105 14.0439 77.0514 13.4175C81.0938 9.98338 84.2862 8.57948 88.0562 8.57948C90.7801 8.57948 93.2753 9.52981 95.084 11.2685C96.8164 12.9316 97.7643 15.167 97.7752 17.5645C97.797 17.9316 97.7861 18.2448 97.7207 18.5148C100.052 8.37429 90.7692 -3.29972 77.5853 2.67228C77.411 2.76587 77.2367 2.85947 77.0623 2.95306C77.0551 2.96026 77.0478 2.96386 77.0405 2.96386C76.8735 3.05745 76.7064 3.15465 76.5393 3.25544C76.5321 3.26264 76.5212 3.26984 76.5066 3.27704C76.3468 3.37063 76.187 3.46783 76.0272 3.56862C76.0127 3.57582 75.9982 3.58662 75.9836 3.60102C75.8238 3.69461 75.664 3.7918 75.5042 3.8926C75.4897 3.907 75.4715 3.92139 75.4497 3.93579C75.2972 4.03659 75.1447 4.13738 74.9921 4.23817C74.9703 4.25257 74.9485 4.26697 74.9267 4.28137C74.7815 4.38216 74.6326 4.48656 74.48 4.59455C74.451 4.60895 74.4255 4.62695 74.4037 4.64855C74.2585 4.74934 74.1132 4.85373 73.9679 4.96172C73.9389 4.98332 73.9098 5.00492 73.8808 5.02652C73.7427 5.12731 73.6047 5.23171 73.4667 5.3397C73.4304 5.3685 73.3904 5.39729 73.3469 5.42609C73.2161 5.52688 73.0854 5.62768 72.9546 5.72847C72.911 5.76447 72.8674 5.79687 72.8239 5.82566C72.7004 5.92646 72.5733 6.02725 72.4425 6.12804C72.3989 6.17124 72.3517 6.21084 72.3009 6.24684C72.1774 6.34763 72.0575 6.44842 71.9413 6.54922C71.8832 6.59241 71.8251 6.63921 71.767 6.68961C71.6507 6.7832 71.5382 6.88039 71.4292 6.98119C71.3638 7.03158 71.2984 7.08558 71.2331 7.14318C71.1241 7.22957 71.0188 7.31956 70.9171 7.41316C70.8372 7.48515 70.7573 7.55355 70.6774 7.61834C70.583 7.70474 70.4922 7.78753 70.405 7.86673C70.3033 7.95312 70.2052 8.03951 70.1108 8.12591C70.0382 8.1907 69.9619 8.2591 69.882 8.3311C69.7149 8.48229 69.5442 8.64067 69.3699 8.80626L68.1931 9.88619L71.5382 13.2124C72.3009 13.9683 73.3251 14.3787 74.4037 14.3787Z" fill="url(#paint2_linear_18_2)"/>
<path d="M60.1194 20.6637C59.8343 20.6079 60.1194 20.6637 53.6597 23.8279L51.9476 24.627C49.6159 25.9769 47.3931 26.5925 44.9089 26.5925C42.1849 26.5925 39.6898 25.6314 37.8811 23.9035C36.2903 22.37 35.3533 20.3613 35.2116 18.1799H26.6039C26.9308 27.7156 34.8521 35.1131 44.9089 35.1131C49.1909 35.1131 54.5735 34.2384 62.0044 27.7912C62.7344 27.1541 63.1702 26.2469 63.2029 25.2858C63.2356 24.3247 62.8652 23.3851 62.1787 22.7048C62.1787 22.7048 60.4045 20.7195 60.1194 20.6637Z" fill="url(#paint3_linear_18_2)"/>
<path d="M98.0367 32.3594C92.785 35.178 87.1083 32.003 82.6083 27.5321C78.0865 23.0612 72.6822 17.6939 72.6822 17.6939L67.583 12.6399C61.3288 6.45192 54.8785 0.0587502 44.9088 0.0587502C41.2043 0.0587502 37.783 1.06308 34.9283 2.81256C41.9016 -1.19396 47.7199 5.01561 51.7732 9.03294C55.8482 13.0719 60.4027 17.586 60.4027 17.586L65.382 22.532C71.6362 28.7092 78.0865 35.1132 88.0562 35.1132C91.7608 35.1132 95.182 34.098 98.0367 32.3594Z" fill="url(#paint4_linear_18_2)"/>
<path d="M93.6799 17.1435C94.4858 17.6088 94.4858 18.7719 93.6799 19.2372L86.4273 23.4245C85.6214 23.8898 84.6141 23.3082 84.6141 22.3777L84.6141 14.0031C84.6141 13.0725 85.6214 12.491 86.4273 12.9562L93.6799 17.1435Z" fill="white"/>
<defs>
<linearGradient id="paint0_linear_18_2" x1="26.5933" y1="0.0552008" x2="106.372" y2="0.0552008" gradientUnits="userSpaceOnUse">
<stop stop-color="#FFDE3E"/>
<stop offset="0.25" stop-color="#FF793E"/>
<stop offset="0.5" stop-color="#FF31FA"/>
<stop offset="0.751" stop-color="#8733FF"/>
<stop offset="1" stop-color="#221DFF"/>
</linearGradient>
<linearGradient id="paint1_linear_18_2" x1="86.9891" y1="53.778" x2="31.4018" y2="2.68726" gradientUnits="userSpaceOnUse">
<stop stop-color="#9D4EDD"/>
<stop offset="0.502" stop-color="#7B2BBE"/>
<stop offset="0.997" stop-color="#3C0A6D"/>
</linearGradient>
<linearGradient id="paint2_linear_18_2" x1="90.8188" y1="27.8152" x2="64.8181" y2="9.8487" gradientUnits="userSpaceOnUse">
<stop offset="0.00300002" stop-color="#3C0A6D"/>
<stop offset="0.498" stop-color="#7B2BBE"/>
<stop offset="1" stop-color="#9D4EDD"/>
</linearGradient>
<linearGradient id="paint3_linear_18_2" x1="54.3124" y1="44.1293" x2="27.6121" y2="20.8221" gradientUnits="userSpaceOnUse">
<stop stop-color="#9D4EDD"/>
<stop offset="0.502" stop-color="#7B2BBE"/>
<stop offset="0.997" stop-color="#3C0A6D" stop-opacity="0"/>
</linearGradient>
<linearGradient id="paint4_linear_18_2" x1="82.7041" y1="53.778" x2="29.6377" y2="15.196" gradientUnits="userSpaceOnUse">
<stop offset="0.003" stop-color="#3C0A6D"/>
<stop offset="0.498" stop-color="#7B2BBE"/>
<stop offset="1" stop-color="#9D4EDD"/>
</linearGradient>
</defs>
</svg>
